<svg width="225" height="157" viewBox="0 0 225 157" fill="none" xmlns="http://www.w3.org/2000/svg">
<g clip-path="url(#clip0_185_250)">
<path d="M194.037 3.45825H30.9634C15.7629 3.45825 3.44043 15.8444 3.44043 31.1234V125.877C3.44043 141.156 15.7629 153.542 30.9634 153.542H194.037C209.237 153.542 221.56 141.156 221.56 125.877V31.1234C221.56 15.8444 209.237 3.45825 194.037 3.45825Z" fill="#51A2CD" stroke="black" stroke-width="10" stroke-linejoin="round"/>
<path d="M152.488 81.7397C152.488 83.5691 152.546 85.7235 152.664 88.2023C152.782 89.8546 152.84 90.9467 152.84 91.4779C152.84 93.0714 152.077 93.8681 150.55 93.8681H139.101V90.8582C139.101 87.907 137.956 84.6314 135.666 81.0315L116.202 50.9316V93.8681H102.814V31.8979H114.969C115.732 31.8979 116.348 32.016 116.818 32.2521C117.347 32.4291 117.845 32.9013 118.315 33.6685L139.101 65.4503V31.8979H152.488V81.7397Z" fill="black"/>
<path d="M183.858 90.0613C185.033 91.3594 187.411 93.8382 190.992 97.4977C189.583 99.9177 187.117 101.127 183.594 101.127C181.774 101.127 180.247 100.832 179.014 100.242C177.781 99.7109 176.666 98.8553 175.668 97.6747C174.845 96.7894 173.906 95.4615 172.849 93.6909C171.44 93.8092 170.325 93.868 169.502 93.868C161.106 93.868 154.56 91.0648 149.862 85.4578C145.224 79.7919 142.904 71.8541 142.904 61.6436C142.904 51.6694 145.224 43.9379 149.862 38.4491C154.56 32.9013 161.106 30.1274 169.502 30.1274C177.899 30.1274 184.416 32.9013 189.055 38.4491C193.752 43.9379 196.101 51.6694 196.101 61.6436C196.101 68.4308 195.044 74.2444 192.93 79.0837C190.816 83.923 187.792 87.5825 183.858 90.0613ZM156.82 61.6436C156.82 68.7849 157.642 74.1558 159.286 77.7558C160.989 81.3557 163.66 83.4216 167.301 83.9528L163.69 77.1361H174.258C175.257 78.9066 176.166 80.3819 176.989 81.5625C180.453 78.3167 182.185 71.677 182.185 61.6436C182.185 53.9711 181.187 48.4233 179.191 45.0003C177.194 41.5771 173.965 39.8656 169.502 39.8656C165.04 39.8656 161.81 41.5771 159.814 45.0003C157.818 48.4233 156.82 53.9711 156.82 61.6436Z" fill="black"/>
<path d="M36.9631 125.124C36.9631 126.474 36.842 127.404 36.5998 127.913C36.3576 128.4 35.9063 128.643 35.2457 128.643H22.1338V105.404H36.5998V108.924H27.22V114.899H35.0145V118.418H27.22V125.124H36.9631ZM59.2426 124.095C59.2426 124.781 59.2646 125.589 59.3086 126.519C59.3526 127.138 59.3747 127.548 59.3747 127.747C59.3747 128.344 59.0884 128.643 58.5159 128.643H54.2224V127.515C54.2224 126.408 53.793 125.18 52.9343 123.83L45.6352 112.542V128.643H40.615V105.404H45.1728C45.4591 105.404 45.6903 105.449 45.8664 105.537C46.0646 105.604 46.2517 105.781 46.4279 106.068L54.2224 117.987V105.404H59.2426V124.095ZM74.1776 128.975C70.6767 128.975 67.9793 127.946 66.0857 125.888C64.2142 123.83 63.2784 120.886 63.2784 117.057C63.2784 114.556 63.7077 112.409 64.5664 110.617C65.4472 108.824 66.7022 107.452 68.3316 106.5C69.9611 105.548 71.9097 105.073 74.1776 105.073C75.5648 105.073 76.8969 105.316 78.1739 105.803C79.473 106.268 80.4969 106.898 81.2455 107.695C81.1354 108.403 80.8602 109.067 80.4198 109.687C79.9794 110.307 79.5721 110.617 79.1978 110.617C78.8895 110.617 78.6033 110.517 78.3391 110.318C77.5904 109.742 76.8859 109.333 76.2253 109.089C75.5868 108.846 74.8822 108.724 74.1115 108.724C70.3684 108.724 68.4967 111.502 68.4967 117.057C68.4967 122.568 70.3684 125.323 74.1115 125.323C75.1024 125.323 76.0492 125.124 76.9519 124.726C77.8767 124.327 78.6804 123.752 79.3629 123C79.8693 123.243 80.2767 123.586 80.5849 124.029C80.8932 124.449 81.0473 124.892 81.0473 125.357C81.0473 125.998 80.7281 126.596 80.0895 127.149C79.473 127.703 78.6363 128.145 77.5794 128.477C76.5226 128.809 75.3886 128.975 74.1776 128.975ZM94.3154 128.975C91.2549 128.975 88.943 128.256 87.3797 126.817C85.8384 125.357 85.0677 123.188 85.0677 120.31V105.404H90.154V121.041C90.154 122.413 90.5063 123.475 91.2109 124.228C91.9375 124.958 92.9723 125.323 94.3154 125.323C97.0677 125.323 98.4439 123.896 98.4439 121.041V105.404H103.53V120.31C103.53 123.232 102.77 125.412 101.251 126.851C99.7319 128.267 97.42 128.975 94.3154 128.975ZM123.047 125.124C123.047 126.474 122.926 127.404 122.684 127.913C122.442 128.4 121.99 128.643 121.33 128.643H108.218V105.404H122.684V108.924H113.304V114.899H121.099V118.418H113.304V125.124H123.047ZM135.485 128.975C132.777 128.975 130.652 128.51 129.111 127.581C127.569 126.651 126.799 125.379 126.799 123.763C126.799 122.988 127.118 122.38 127.757 121.937C128.417 121.495 129.342 121.262 130.531 121.24C130.663 122.546 131.158 123.553 132.017 124.261C132.898 124.969 134.076 125.323 135.551 125.323C138.259 125.323 139.613 124.316 139.613 122.302C139.613 121.506 139.239 120.853 138.49 120.344C137.764 119.835 136.487 119.315 134.659 118.783C132.061 118.053 130.156 117.123 128.945 115.995C127.734 114.844 127.129 113.372 127.129 111.579C127.129 109.565 127.9 107.983 129.441 106.832C131.004 105.659 133.129 105.073 135.815 105.073C137.973 105.073 139.823 105.593 141.364 106.633C142.905 107.651 143.962 109.078 144.534 110.915C144.16 111.292 143.643 111.624 142.982 111.911C142.322 112.199 141.738 112.343 141.232 112.343C140.835 112.343 140.527 112.265 140.307 112.111C140.087 111.933 139.856 111.613 139.613 111.148C139.173 110.285 138.667 109.665 138.094 109.289C137.522 108.912 136.762 108.724 135.815 108.724C133.459 108.724 132.281 109.51 132.281 111.081C132.281 111.701 132.402 112.21 132.645 112.609C132.887 112.985 133.305 113.339 133.9 113.671C134.494 113.981 135.397 114.335 136.608 114.733C138.81 115.464 140.494 116.139 141.661 116.758C142.828 117.356 143.643 118.009 144.105 118.717C144.59 119.425 144.832 120.299 144.832 121.34C144.832 122.845 144.435 124.173 143.643 125.323C142.872 126.474 141.782 127.371 140.373 128.012C138.964 128.654 137.334 128.975 135.485 128.975ZM162.852 105.404C162.94 105.936 162.984 106.423 162.984 106.865C162.984 107.618 162.863 108.171 162.62 108.525C162.378 108.879 161.993 109.056 161.465 109.056H157.039V128.643H152.019V109.056H146.206V105.404H162.852ZM178.057 128.643C177.726 126.275 177.407 124.361 177.099 122.9H168.115C167.807 124.361 167.488 126.275 167.158 128.643H162.204C163.04 120.609 165.66 112.863 170.064 105.404H175.183C179.565 112.819 182.174 120.565 183.011 128.643H178.057ZM176.306 119.248C175.382 115.596 174.148 112.243 172.607 109.189C171.066 112.243 169.833 115.596 168.908 119.248H176.306ZM194.476 128.975C191.768 128.975 189.643 128.51 188.102 127.581C186.561 126.651 185.79 125.379 185.79 123.763C185.79 122.988 186.109 122.38 186.748 121.937C187.408 121.495 188.333 121.262 189.522 121.24C189.654 122.546 190.15 123.553 191.008 124.261C191.889 124.969 193.067 125.323 194.542 125.323C197.251 125.323 198.605 124.316 198.605 122.302C198.605 121.506 198.23 120.853 197.482 120.344C196.755 119.835 195.478 119.315 193.651 118.783C191.052 118.053 189.148 117.123 187.937 115.995C186.726 114.844 186.12 113.372 186.12 111.579C186.12 109.565 186.891 107.983 188.432 106.832C189.995 105.659 192.12 105.073 194.806 105.073C196.964 105.073 198.814 105.593 200.355 106.633C201.896 107.651 202.953 109.078 203.526 110.915C203.151 111.292 202.634 111.624 201.973 111.911C201.313 112.199 200.729 112.343 200.223 112.343C199.827 112.343 199.518 112.265 199.298 112.111C199.078 111.933 198.847 111.613 198.605 111.148C198.164 110.285 197.658 109.665 197.085 109.289C196.513 108.912 195.753 108.724 194.806 108.724C192.451 108.724 191.273 109.51 191.273 111.081C191.273 111.701 191.394 112.21 191.636 112.609C191.878 112.985 192.296 113.339 192.891 113.671C193.485 113.981 194.388 114.335 195.599 114.733C197.801 115.464 199.485 116.139 200.652 116.758C201.819 117.356 202.634 118.009 203.096 118.717C203.581 119.425 203.823 120.299 203.823 121.34C203.823 122.845 203.427 124.173 202.634 125.323C201.863 126.474 200.773 127.371 199.364 128.012C197.955 128.654 196.326 128.975 194.476 128.975Z" fill="black"/>
<path d="M70.8713 29.0483H33.0273C24.667 29.0483 17.8896 35.8607 17.8896 44.2642V79.5373C17.8896 87.9408 24.667 94.7532 33.0273 94.7532H70.8713C79.2316 94.7532 86.0089 87.9408 86.0089 79.5373V44.2642C86.0089 35.8607 79.2316 29.0483 70.8713 29.0483Z" fill="white" stroke="black" stroke-width="6"/>
<path d="M56.0177 49.6359C58.279 47.5962 60.7363 45.3363 63.1773 43.4877C63.4744 43.2628 63.5987 43.461 63.7015 43.4155C63.9803 43.2941 63.9416 42.9715 64.1166 42.8532C64.9564 42.2861 65.7213 41.7137 66.5649 41.1475C67.421 40.5756 67.4838 41.4496 67.8768 41.3599C68.6411 41.1901 67.5905 40.8259 67.6765 40.4877C68.3329 40.0373 69.0373 39.6122 69.7329 39.201C69.629 39.3932 69.5258 39.5828 69.4233 39.7662C69.6992 39.5748 70.2008 39.3681 69.8788 39.9306C70.0233 39.9036 70.1691 39.89 70.315 39.8601C70.1368 39.5652 70.6068 39.1655 70.5263 38.9719C70.4471 38.7765 70.2035 39.0236 70.1939 39.0087C70.0508 38.7985 71.4063 38.1909 71.4957 38.16C71.7579 38.0542 71.8226 38.5383 71.9932 38.3739C72.285 38.0935 71.5577 37.5619 72.671 38.1581C72.6139 37.7336 72.746 37.8767 72.982 37.7311C73.013 37.7119 72.8616 37.5556 72.8712 37.5415C73.1065 37.1642 73.0921 37.6775 73.1065 37.6935C73.3577 37.9665 73.6095 37.5729 73.7017 37.5484C74.9017 37.2045 75.7611 36.9438 76.8132 36.3144C77.0292 36.1859 77.6031 35.5945 77.8577 35.4932C78.0978 35.4009 78.1398 35.6965 78.3166 35.7286C78.1336 35.0758 78.2444 34.9113 78.8884 34.9808C78.768 34.4968 78.9613 34.8207 79.1932 34.5502C79.3811 34.3287 79.4953 33.5772 80.0141 33.8105C79.69 33.9698 79.8483 34.1412 79.5875 34.482C79.4932 34.597 78.3552 35.3912 78.715 35.7247C78.8987 35.8999 79.1471 35.4507 79.1891 35.4776C79.4285 35.6376 79.3866 36.065 79.1464 36.0913C79.1623 36.0146 79.1774 35.9377 79.2035 35.8538C78.6029 35.8631 79.6198 36.7204 78.6579 36.0228C78.5396 35.9378 78.4694 35.8114 78.3256 35.7337C78.3476 35.7923 78.5079 35.8629 78.4584 35.9304C78.4081 35.9986 78.115 35.8564 78.232 36.0675C78.404 36.3729 78.6042 36.0643 78.638 36.0661C78.6366 36.0643 78.6359 36.0623 78.6352 36.0605C78.9359 36.0761 78.5478 36.3729 78.5499 36.4121C78.5506 36.6773 78.7322 36.7542 78.6448 37.035C78.5912 37.1982 78.3056 37.3264 78.2203 37.4279C78.1398 37.5267 78.3902 37.551 78.3435 37.6278C78.2974 37.7036 78.135 37.6656 78.0882 37.7498C78.0662 37.7873 78.1742 37.9364 78.1625 37.9528C78.0359 38.1304 77.9251 37.7388 77.784 37.8687C77.6939 37.9526 77.5515 38.4954 77.8535 38.4088C77.7552 38.5249 77.6753 38.6162 77.5811 38.7205C77.6815 38.715 77.7737 38.6944 77.8769 38.6994C77.6244 38.7735 77.7132 39.0985 77.5955 39.2131C77.4751 39.3291 77.1373 39.1079 77.1063 39.3588C77.0347 39.8971 77.6767 39.2031 77.8157 39.1898C77.8687 39.1857 77.901 39.528 77.8838 39.5509C77.8102 39.6502 77.5625 39.5686 77.5006 39.6255C77.2652 39.8415 77.2639 40.1889 77.0416 40.4228C76.3019 41.2064 75.3531 42.116 74.59 42.7783C74.3093 43.0218 73.9357 42.9134 73.8049 43.0255C73.5125 43.2776 73.6412 43.5245 73.3783 43.7473C72.973 44.0904 72.2863 44.3261 71.9052 44.5618C71.6554 44.7139 71.6107 45.0873 71.5549 45.1403C70.7678 45.8865 69.7673 46.6869 69.0792 47.2542C68.7488 47.5262 68.4204 47.4112 68.3575 47.4741C68.0969 47.7364 68.334 47.8709 68.0858 48.0423C67.9516 48.1356 67.773 47.9663 67.7501 47.9728C67.5508 48.0331 67.7198 48.3074 67.6146 48.4083C67.0046 48.993 66.2292 49.3704 65.5653 49.8922C65.5165 49.9303 65.4299 49.8184 65.4039 49.85C65.2943 49.9882 65.4988 50.1067 65.3711 50.2362C65.1048 50.5076 64.8006 50.7186 64.4803 50.9558C64.4487 50.9791 64.3179 50.8519 64.2496 50.9104C64.1812 50.969 64.2407 51.1448 64.1268 51.2301C63.8237 51.4575 63.4279 51.5268 63.1241 51.775C63.0743 51.8159 63.1564 52.0344 63.0817 52.096C62.8474 52.2896 62.3737 52.4389 62.178 52.6005C61.5224 53.1436 61.0038 53.7672 60.4056 54.3014C60.2636 54.4277 60.0029 54.3885 59.9253 54.4513C59.7506 54.5933 60.0042 54.6237 59.8345 54.7765C58.4729 56.0003 57.037 57.1912 55.6835 58.4691C55.6026 58.5455 55.5218 58.6278 55.4409 58.714C54.9984 59.1877 54.5746 59.7801 54.126 60.1526C53.903 60.3374 53.681 60.1846 53.5335 60.3265C53.2718 60.5808 53.4631 60.8691 53.2182 61.1628C53.0228 61.3967 52.5394 61.4046 52.3295 61.6504C52.1213 61.8945 52.2547 62.2299 52.0321 62.5197C51.8482 62.7586 51.4562 62.9559 51.2475 63.2152C49.3604 65.5646 47.5774 67.8851 45.5325 70.1271C44.8105 70.9183 44.1468 71.8949 43.2425 72.6066C43.1571 72.6737 42.9917 72.3583 42.8519 72.6702C42.7774 72.8383 42.8557 73.2014 42.634 73.5431C41.2929 75.609 39.3867 77.4971 38.2107 79.7339C36.4339 83.118 36.7491 87.4538 32.5324 89.0653C32.3319 89.1331 31.6183 88.7742 31.4407 88.6096C31.6278 88.575 31.8297 88.5874 32.0356 88.5653C31.1722 88.0535 31.388 88.2043 31.6482 87.8176C31.8038 87.5942 31.3291 87.6233 31.277 87.4393C31.2097 87.1959 31.1263 86.1778 31.6552 86.608C31.5736 86.5111 31.4952 86.4198 31.4163 86.323C31.5959 85.6846 31.7119 85.0511 31.8258 84.383C31.843 84.2716 31.6599 84.1762 31.68 84.06C31.7329 83.7467 31.9699 83.5731 32.0871 83.293C32.1535 83.1353 31.9512 83.006 32.0687 82.8082C32.1878 82.6076 32.4702 82.7625 32.2971 82.3337C31.8435 82.3302 32.5245 81.6511 32.6453 81.3723C32.663 81.3315 32.5198 80.8273 32.6548 80.6648C32.7922 80.4953 33.1339 80.3515 33.1697 80.0126C33.1862 79.8542 32.9824 79.6377 33.0467 79.4883C33.0921 79.3832 33.3779 79.386 33.4535 79.2725C33.5295 79.1577 33.4991 78.7912 33.5241 78.7407C33.6121 78.5574 33.6553 78.8396 33.7314 78.7234C34.1024 78.1507 34.5642 77.5455 34.7989 76.9189C34.8274 76.8428 34.5925 76.8304 34.592 76.8179C34.6518 76.219 34.7357 76.6084 34.9707 76.5786C35.1973 76.5482 35.6604 75.6007 35.3566 75.4056C35.758 75.6187 35.5863 75.2376 35.6074 75.1788C35.689 74.9499 35.9961 75.1988 36.0159 74.9388C36.0237 74.8426 35.7119 74.8413 35.7669 74.768C35.9056 74.5833 36.367 74.6497 36.5607 74.4249C36.6076 74.371 36.4604 74.2485 36.5342 74.1455C36.6074 74.0424 37.0936 73.7174 36.6238 73.707C37.0701 73.6074 36.9584 73.4559 37.1693 73.1502C37.2234 73.0728 37.5447 73.1405 37.5774 72.9192C37.5885 72.8438 37.3424 72.682 37.3978 72.5942C37.5229 72.3943 37.9052 72.3715 38.0787 72.1356C38.4045 71.6943 38.5745 71.0677 38.9679 70.6396C39.0752 70.5227 39.2943 70.7268 39.4307 70.5428C39.4498 70.5151 39.401 70.1403 39.5138 70.0234C39.5802 69.9549 40.0213 69.6485 40.0882 69.5814C40.2026 69.4625 39.9887 69.2695 40.0868 69.2301C40.3705 69.1145 40.5864 69.5344 40.3075 68.9378C40.6259 69.0446 40.7093 68.8771 41.0604 69.0649C40.7779 68.7205 41.1931 68.8566 41.2023 68.6019C41.2116 68.3469 40.6446 67.7093 41.3921 68.2123C41.3621 68.0698 41.4621 67.6278 41.494 67.5636C41.5881 67.3762 41.7187 67.6157 41.7863 67.4715C41.7985 67.4463 41.6462 67.3652 41.7667 67.2354C41.8472 67.1474 42.3697 66.4905 42.4193 66.4663C42.9812 66.1816 42.3591 66.8165 42.4305 67.0264C42.3792 67.0137 42.3278 67.0007 42.276 66.9894C42.0577 67.1403 42.4504 67.2611 42.5893 67.2275C42.7287 67.1932 42.7242 66.92 42.8817 66.9236C42.9605 66.9258 43.3041 67.2347 43.1734 67.3117C43.378 67.2803 43.3688 67.5359 43.5104 67.5714C43.6648 67.6103 44.1202 67.1041 43.9251 66.9422C43.8387 67.0369 43.7473 67.167 43.6597 67.2617C43.2086 67.1216 42.3464 65.7764 43.1177 65.7763C43.6732 65.7802 43.589 66.4378 43.8115 65.5779C43.7197 65.6633 43.622 65.719 43.5371 65.7951C43.2724 65.5958 43.6696 65.6828 43.6473 65.5429C43.6359 65.4749 43.2781 65.545 43.3705 65.3062C43.8691 65.4427 43.6014 65.0161 43.8221 64.7377C43.8246 64.8678 43.8271 64.9975 43.8304 65.1271C44.4713 64.8848 43.687 66.0253 44.565 65.2539C44.4885 65.3712 44.398 65.4755 44.3283 65.5982C44.505 65.6564 44.8311 66.0637 44.9522 66.0856C45.2696 66.1437 45.2852 65.8553 45.4271 65.7223C45.4887 65.664 45.5612 65.7925 45.5664 65.7876C45.6515 65.7084 45.4803 65.5987 45.5352 65.5121C45.6049 65.4025 45.9902 65.2468 46.0103 65.1884C46.0647 65.0346 45.5973 64.9719 45.584 64.9416C45.4992 64.7422 45.7499 64.6925 45.5508 64.5371C45.3767 65.0107 44.3049 65.9635 44.7978 64.7103C44.2599 64.7205 43.8921 64.2817 44.1862 63.8597C44.4258 63.5156 44.425 63.8676 44.7534 63.8618C44.7946 63.8603 45.2462 63.5103 45.1327 63.374C45.424 63.6542 45.8124 63.7493 46.0487 64.1136C46.0833 64.1671 45.9177 64.3246 46.2229 64.4822C46.3761 64.5614 46.7268 64.7139 46.877 64.8675C46.7944 64.7352 46.6992 64.5889 46.6125 64.4514C46.8008 64.1646 46.9542 64.2326 47.2849 64.2745C47.1922 64.2045 46.7124 64.0151 46.9958 63.9139C47.0113 63.9096 47.1501 64.0161 47.3009 63.9747C47.605 63.89 47.6813 63.8852 47.9334 64.3765C48.0728 63.7724 48.5777 64.0644 48.828 63.5331C48.2644 63.1741 48.2504 63.4332 48.0058 63.9035C47.8737 63.8161 47.7507 63.7208 47.617 63.633C48.3375 63.3535 48.0845 63.5855 48.1079 63.0798C48.1134 62.9559 48.5193 62.6298 48.076 62.4585C47.9713 62.4183 47.7662 62.6651 47.6686 62.5272C47.6497 62.5011 47.8524 62.1561 47.9067 62.1598C48.5804 62.1994 48.3376 63.008 48.9854 62.0153C49.0032 61.9877 48.8702 61.8486 48.8936 61.7838C48.9379 61.6622 49.1016 61.8129 49.1363 61.6997C49.1709 61.5866 49.054 61.2729 49.3651 61.345C49.9311 61.4772 49.6708 62.1793 49.2701 62.2213C49.6665 62.7544 51.1577 61.1876 51.2156 61.056C51.4491 60.4617 50.8699 61.2643 50.7052 61.174C50.6354 61.1352 49.9374 60.4481 50.224 61.0686C50.3095 61.2518 50.6987 61.2028 50.6479 61.4066C50.5976 61.6102 50.4393 61.3584 50.4156 61.354C50.3346 61.3392 50.2789 61.5535 50.2321 61.5435C49.5161 61.3993 48.8634 60.7241 50.2178 61.307C50.1459 60.9276 49.4309 60.9572 49.4696 60.6073C49.5181 60.1806 50.0134 60.3097 50.0572 60.293C50.5862 60.0871 49.7047 60.0614 50.2944 59.7518C50.623 59.5803 50.2363 60.4333 50.767 59.8274C51.2108 59.3234 50.7962 59.4221 50.4649 59.0232C50.3874 58.93 50.5412 58.5631 50.2268 58.9577C50.3122 59.0625 50.4194 59.2061 50.4848 59.3164C50.3283 59.3357 49.7044 59.0122 49.6412 59.0435C49.3355 59.1978 49.5968 59.4301 49.17 59.2805C49.5866 59.4961 49.2389 59.4665 49.2498 59.5924C49.2892 60.0577 49.6602 59.8562 48.8629 60.0425C49.0767 60.1232 49.2816 60.208 49.4923 60.2911C49.4411 60.3555 49.39 60.42 49.3391 60.4843C48.9201 60.2514 48.6626 60.6117 48.5959 60.0007C48.1705 60.2584 48.1094 60.474 48.3018 60.7974C48.3385 60.8592 48.3096 60.9309 48.2571 60.9975C48.3422 61.055 48.5852 61.2543 48.6044 61.2903C48.7714 61.6081 48.2194 61.3446 48.0982 61.1467C48.0505 61.1828 48.0097 61.2087 47.9946 61.2171C47.8985 61.2706 47.8892 60.9824 47.7812 60.9978C47.7455 61.0031 47.5789 61.2504 47.5149 61.199C47.1043 60.8695 47.7099 60.7653 46.8289 61.2826C47.1684 61.6206 47.3921 61.2168 47.6894 61.6459C48.0095 62.1057 47.2985 61.8001 47.7565 62.2932C47.661 62.2344 47.5869 62.1795 47.4821 62.1085C47.4345 62.5988 47.0176 62.2287 46.8452 62.2369C46.5083 62.2523 45.8289 63.0826 46.8254 62.6803C46.7683 62.818 46.6904 62.9405 46.6307 63.0737C45.8593 62.4366 46.2161 62.6307 45.6547 63.046C45.5308 63.1379 45.1661 62.8871 45.465 63.3414C45.0902 62.9907 45.0356 63.5318 44.9622 63.5226C44.4808 63.4638 44.7002 62.3374 45.4689 62.836C45.313 62.4768 45.6648 62.7831 45.7388 62.6037C45.8467 62.3438 45.8037 62.2548 46.271 62.245C46.1145 61.6866 45.3044 63.0257 45.4363 61.8966C45.5451 60.7333 49.082 56.4606 49.9877 55.5118C50.4467 54.9954 50.8498 54.5505 51.2299 54.1435C52.1163 53.1921 52.8345 52.4616 53.9208 51.5021C54.0671 51.371 55.1869 50.2988 55.32 50.9342C55.3397 51.0245 54.9921 51.6249 55.7048 51.5755C55.4466 51.4581 55.5808 51.1103 55.5832 51.0714C55.6454 50.1808 55.2609 50.3199 56.0177 49.6359ZM61.5281 51.4473C60.4781 52.1954 61.4337 51.8579 61.7877 52.6734C61.9134 52.5664 62.038 52.4605 62.1628 52.3548C62.0957 52.3428 62.0291 52.3307 61.9619 52.3188C61.9617 52.319 61.962 52.3187 61.9619 52.3188C61.8172 52.0283 61.6726 51.7379 61.5281 51.4473ZM78.3496 38.7169C78.373 38.8372 78.3971 38.9575 78.4157 39.0788C78.2492 39.1559 78.1047 39.2184 77.9464 39.2901C77.9189 39.2169 77.89 39.1433 77.8618 39.07C78.0214 38.9585 78.1879 38.8427 78.3496 38.7169ZM49.2383 62.437C48.8487 62.404 49.2694 62.7626 48.8707 62.8272C49.1976 63.0738 49.5205 63.3117 49.8452 63.5548C49.9615 63.3374 49.8845 63.1917 50.134 63.0673C50.0174 63.0005 49.8997 62.9337 49.7828 62.8659C49.774 62.9172 49.7661 62.9731 49.756 63.0211C49.4409 62.8219 49.685 62.4749 49.2382 62.4358C49.2382 62.4363 49.2383 62.4367 49.2383 62.437ZM47.7213 64.3829C47.5986 64.4424 47.1084 64.7056 47.1914 64.8689C47.4691 65.4233 48.1407 64.0879 47.8277 65.2305C47.8916 65.2795 47.9479 65.3347 48.008 65.3869C48.1547 65.2593 48.302 65.1259 48.4437 64.9973C48.1988 64.7959 47.9683 64.5842 47.7213 64.3829ZM58.0532 54.577C57.8742 54.6783 57.3434 55.5233 57.8168 55.5839C57.953 55.6038 57.9278 54.9263 58.0629 54.8348C58.1507 54.7751 58.2529 55.0663 58.3372 54.8495C58.2468 54.7619 58.15 54.6619 58.0533 54.578C58.0533 54.5777 58.0533 54.5773 58.0532 54.577ZM57.2307 53.0885C57.1101 53.2652 56.996 53.4545 56.8755 53.636C57.2058 53.7746 57.2906 53.4179 57.6073 53.7469C57.5878 53.8109 57.5687 53.8745 57.5492 53.9387C57.4502 53.8935 57.3516 53.848 57.253 53.8025C57.2842 54.1083 57.4477 54.1265 57.1502 54.299C57.7613 54.6764 58.0359 54.9267 57.9957 54.024C58.1646 54.3755 59.051 55.2183 58.7052 54.3575C58.6414 54.1973 58.387 54.2805 58.3677 54.2633C58.1266 54.0493 58.0924 53.8053 57.8612 53.6064C57.7566 53.5162 57.646 53.6185 57.5029 53.4918C57.4335 53.4296 57.3644 53.136 57.2307 53.0885ZM58.6156 54.0276C58.6972 54.215 59.1642 54.4145 59.2416 54.2201C59.3678 53.9128 58.7283 53.8972 58.6156 54.0276ZM78.3503 38.7158C78.3496 38.7162 78.3496 38.7165 78.3496 38.7169C78.3496 38.7164 78.349 38.7159 78.349 38.7155C78.3496 38.7156 78.3496 38.7157 78.3503 38.7158ZM48.3255 64.0333C48.3482 64.2566 48.1833 64.4086 48.3905 64.5697C48.3038 64.5907 48.2171 64.6129 48.1304 64.634C48.1901 64.6855 48.2502 64.7366 48.3093 64.7876C48.4901 64.6546 48.6717 64.5223 48.8549 64.3902C48.6794 64.2705 48.5045 64.1489 48.3255 64.0333ZM46.609 65.7497C46.4108 65.9455 46.8323 65.997 46.9249 66.1547C47.0188 66.3106 46.7503 66.4144 46.9586 66.5501C47.0721 66.4286 47.1875 66.3055 47.2999 66.1854C47.0671 66.0448 46.8391 65.8908 46.609 65.7497C46.6091 65.7496 46.6089 65.7499 46.609 65.7497ZM65.7204 48.2302C65.5218 48.296 65.4093 48.0348 65.3272 48.5205C65.3274 48.5203 65.3277 48.52 65.3279 48.5199C65.7373 48.4666 66.2296 48.3132 66.394 47.8954C66.0253 47.8289 66.0311 48.1273 65.7204 48.2302ZM50.2751 62.4976C50.1726 62.2911 49.787 62.4417 49.8781 62.6387C50.0257 62.9569 50.4306 62.8108 50.2751 62.4976ZM70.5379 41.8538C70.3632 41.1466 69.459 40.9077 69.2024 41.5217C69.1811 41.5744 69.6008 41.5116 69.5953 41.6816C69.5946 41.6984 69.4253 41.8117 69.4432 41.9159C69.4604 42.0201 69.6345 42.1563 69.6256 42.2786C69.6097 42.4924 69.1694 42.4695 69.21 42.7014C69.2162 42.7321 69.5561 42.829 69.5726 42.8297C69.8457 42.8348 69.7707 42.4147 69.7941 42.3926C69.9159 42.2797 70.0783 42.5273 70.1533 42.556C70.2944 42.6107 70.326 42.4199 70.3398 42.421C70.7003 42.4654 70.196 42.7694 70.2042 42.8991C70.2173 43.2547 70.5345 43.3424 70.2393 43.784C70.2111 43.8259 69.7487 44.1725 70.5214 43.9782C69.832 45.4072 71.3182 43.8432 71.4063 43.5836C71.4476 43.4614 71.1462 43.3413 71.1201 43.2011C71.0602 42.8802 71.2281 42.6837 70.9597 42.3761C70.3962 41.7299 70.4781 42.3795 70.2049 42.4116C70.11 42.2498 70.0054 42.1011 69.929 41.9294C70.0253 42.1649 70.5524 41.9054 70.5386 41.8552C70.5386 41.8547 70.5379 41.8543 70.5379 41.8538ZM68.3246 44.8736C67.9172 44.8713 68.2736 45.2784 67.8525 45.2226C67.9568 45.764 68.3318 45.4162 68.394 45.4011C68.6789 45.3273 69.0042 45.7429 69.1136 45.4458C68.846 45.2605 68.5892 45.0622 68.3246 44.8736ZM70.6288 43.3124C70.6329 43.6583 70.9246 43.4213 70.9687 43.4536C71.4414 43.7868 70.4912 44.4024 70.6288 43.3124ZM56.4038 54.6035C56.3115 54.6624 56.5376 54.811 56.5189 54.9327C56.5007 55.0547 56.1082 55.1091 56.2235 55.2247C56.3397 55.3398 57.0661 55.2509 56.6832 55.7243C56.7598 55.7786 56.8005 55.834 56.8634 55.8889C56.9872 55.7792 57.1128 55.6701 57.2359 55.5614C56.9926 55.4258 56.7382 55.282 56.5028 55.1513C56.4308 54.9326 56.6497 55.0978 56.6533 55.0945C56.6531 55.0943 56.653 55.0941 56.6528 55.0938C56.7662 54.962 56.6107 54.4711 56.4038 54.6035ZM63.3554 49.5649C62.956 49.0431 63.2349 49.769 63.2073 49.8998C63.1796 50.0303 62.9116 49.9404 63.1361 50.1197C63.3925 50.1562 63.4001 49.623 63.3549 49.5643C63.355 49.5645 63.3552 49.5647 63.3554 49.5649ZM66.9836 45.9707C66.8782 46.2638 67.0193 46.3685 66.6421 46.4276C66.7524 46.5422 66.8648 46.6595 66.9735 46.7723C67.1767 46.6087 66.8718 46.2633 67.2199 46.2166C67.2769 46.2092 67.4284 46.5607 67.5238 46.3293C67.3506 46.2176 67.1628 46.0899 66.9836 45.9707ZM66.3336 47.2715C66.551 47.0593 65.9218 45.9136 65.8591 46.7183C65.85 46.8383 66.1696 47.432 66.3336 47.2715ZM58.4938 52.6777C58.0747 53.0022 58.6604 52.7568 58.8926 52.8142C58.0801 53.7505 58.9618 52.6796 59.4841 53.0935C59.4718 52.8546 59.3976 52.3495 59.0913 52.4684C58.9635 52.5185 59.1276 52.6339 59.1213 52.6384C58.9116 52.7602 58.7221 52.5011 58.4938 52.6777ZM68.7366 44.4996C68.727 44.5197 68.89 44.6731 68.868 44.7476C68.846 44.8218 68.6365 44.7917 68.7103 44.907C68.7849 45.0226 69.0765 44.9234 69.0827 44.7904C69.0882 44.6565 68.824 44.3196 68.7366 44.4996ZM66.8356 45.3432C66.7363 45.631 67.5777 45.9962 67.6177 45.9586C67.9798 45.607 66.9848 45.5547 66.8356 45.3432ZM58.489 50.8283C58.2914 51.5569 59.1111 51.7928 59.6884 51.8587C59.6705 51.7576 59.6534 51.6555 59.6354 51.5555C59.8052 52.1165 59.8376 52.79 60.2325 51.8226C59.7671 52.0655 59.9938 51.675 59.9765 51.6502C59.375 50.8753 59.107 51.7182 58.489 50.8283C58.4891 50.8282 58.4888 50.8284 58.489 50.8283ZM69.543 44.1503C69.7446 43.9844 70.2139 43.3942 69.6847 43.2704C69.6359 43.5647 69.5843 43.8612 69.543 44.1503ZM50.8707 57.9279C50.5383 57.9142 50.3922 58.0659 50.2065 58.2756C50.6343 58.3486 50.5463 58.4949 50.5482 58.6163C50.5504 58.7997 50.7613 58.5723 50.7788 58.5887C51.0124 58.832 50.9098 59.0085 51.2216 58.6853C51.2255 58.8474 51.2315 59.0088 51.2359 59.1697C51.4871 58.9394 51.6991 59.039 52.0403 59.079C51.4316 58.758 51.9149 58.8571 51.8667 58.4463C51.8429 58.2402 51.0408 57.9347 50.8701 57.9286C50.8703 57.9284 50.8705 57.9281 50.8707 57.9279ZM57.9141 51.1615C57.9435 51.2937 58.0046 51.4536 58.0467 51.5971C58.0037 51.6526 57.9595 51.707 57.9164 51.7627C57.8409 51.6899 57.7632 51.6125 57.6891 51.5437C57.6009 51.5816 57.7238 51.6672 57.7126 51.6955C57.7122 51.695 57.7118 51.6946 57.7115 51.6942C57.5486 52.0982 57.4141 52.1894 56.9773 52.1466C57.1901 52.3863 57.4028 52.626 57.6156 52.8658C57.6454 52.798 57.6761 52.7304 57.7064 52.6634C57.6188 52.5107 57.5312 52.3578 57.4436 52.2051C57.5652 52.2237 57.6871 52.2412 57.8092 52.2595C57.8157 52.1707 57.8296 52.0709 57.8307 51.9891C58.6596 52.4502 57.7204 52.4726 57.9615 52.7561C58.1173 52.9372 58.6498 52.4479 58.6174 52.2562C58.6126 52.2282 58.0557 51.8307 58.4818 51.9169C58.5488 51.9307 59.5123 53.0051 58.9516 51.9403C58.8723 51.7891 58.1762 51.208 57.9141 51.1615ZM55.6545 52.5619C56.5705 52.9777 54.812 53.254 55.795 53.3882C55.9438 53.8259 55.9654 53.7988 56.3521 53.9563C56.3866 53.9706 56.3711 54.1421 56.3889 54.1459C56.6526 54.1871 56.7364 53.9626 56.989 54.2431C57.0106 54.1965 57.0314 54.1535 57.0529 54.107C56.6702 53.9735 56.7421 53.5861 56.6314 53.2816C56.5815 53.1435 56.4599 53.1967 56.4149 53.0771C56.3987 53.0331 56.5871 52.9799 56.5095 52.8822C56.3329 52.662 55.9975 52.4518 55.7192 52.4234C55.7191 52.4232 55.7188 52.423 55.7186 52.4228C55.6959 52.4682 55.6767 52.5157 55.6545 52.5619ZM62.661 47.4343C63.0415 47.7808 63.342 47.7169 63.1057 48.2456C63.1902 48.3057 63.2746 48.3647 63.359 48.4249C63.4204 48.361 63.4782 48.3003 63.544 48.2339C62.7874 46.9034 64.2582 47.8821 63.3295 47.2709C63.2284 47.2046 63.1486 47.4419 63.1072 47.0644C63.1069 47.0644 63.1065 47.0643 63.1061 47.0643C62.9439 47.3283 63.0293 47.4931 62.661 47.4343ZM61.4089 48.9755C61.6006 50.2283 62.4984 48.8277 62.1145 48.7828C62.0772 48.7806 61.7055 49.4052 61.4089 48.9755ZM64.94 44.7658C64.6901 44.9488 65.0489 45.4043 65.203 45.5474C65.3582 45.6907 65.3851 45.3936 65.4279 45.401C65.5655 45.4281 65.4653 45.6043 65.6489 45.6456C65.7098 45.6579 66.2484 45.4809 66.2505 45.4469C66.266 45.2545 65.813 45.0083 65.8079 44.9416C65.7909 44.7229 66.0783 44.8086 65.9455 44.5887C65.6631 44.1186 65.7796 44.7601 65.7441 44.8014C65.6359 44.924 65.4536 44.6785 65.3212 44.7085C65.1887 44.7388 65.1935 44.8706 65.0966 44.9227C65.0643 44.94 64.9532 44.7574 64.94 44.7658ZM64.9526 46.3467C64.9159 45.806 64.0209 45.9317 64.0142 46.0717C64.001 46.4809 64.9714 46.6034 64.9526 46.3467ZM57.3357 52.9223C57.3379 52.493 56.6698 52.7471 56.6111 52.9726C56.726 53.0468 57.3355 53.0694 57.3357 52.9223ZM58.6202 50.7144C58.489 50.9625 59.2208 51.2717 59.3825 51.1143C59.1712 50.673 59.1403 50.8246 59.0177 50.9069C58.8953 50.989 58.7264 50.5179 58.6202 50.7144ZM67.8139 43.0934C67.7612 43.1258 67.2902 44.0079 67.7985 43.8044C67.839 43.7869 68.3034 43.3242 68.2952 43.238C68.2806 43.0618 67.9429 43.0162 67.8139 43.0934ZM59.1256 49.3443C59.2868 49.7443 59.1796 49.8311 59.5897 50.1074C59.5896 50.1075 59.5899 50.1073 59.5897 50.1074C59.4192 50.4516 58.7655 49.7241 58.7213 49.7907C58.5667 50.0244 59.2159 50.3806 59.239 50.6648C59.393 50.2432 59.6164 50.6718 59.8588 50.4988C59.9131 50.4598 59.9289 50.0734 59.8436 49.916C59.7585 49.7583 59.3139 49.4512 59.1256 49.3443ZM68.7678 42.1985C68.4235 42.2734 68.6076 42.9716 69.0146 42.7803C69.2134 42.6875 68.9767 42.1535 68.7678 42.1985ZM45.6792 63.1948C45.8411 63.2717 46.0035 63.3472 46.1663 63.4207C46.1218 63.5362 46.0782 63.6522 46.0352 63.7679C46.0533 63.6627 46.0725 63.5578 46.0924 63.4523C45.9046 63.5777 45.6021 63.4474 45.6792 63.1948C45.6794 63.1946 45.6791 63.1949 45.6792 63.1948ZM40.7534 69.183C40.5617 69.1626 40.8638 69.6229 40.9105 69.6271C41.2586 69.6582 41.0187 69.2114 40.7534 69.183ZM55.9771 52.0364C55.6611 52.2241 56.4044 52.6834 56.6058 52.5795C56.399 52.5498 56.1561 51.9305 55.9771 52.0364ZM42.4305 67.0264C42.5069 67.0454 42.5835 67.0643 42.6624 67.0804C42.514 67.108 42.449 67.0821 42.4305 67.0264ZM67.2359 42.6076C67.1518 42.5926 66.7997 42.809 66.8098 42.9035C66.8288 43.1038 67.3553 43.2732 67.4172 43.04C67.4239 43.0149 67.3191 42.6231 67.2352 42.6081C67.2355 42.6079 67.2357 42.6077 67.2359 42.6076ZM45.116 63.3585C45.1225 63.3633 45.1282 63.3686 45.1327 63.374C45.1273 63.3689 45.1214 63.3639 45.116 63.3585ZM35.3224 75.3883C35.3346 75.3932 35.3462 75.3987 35.3566 75.4056C35.3457 75.4001 35.334 75.3946 35.3224 75.3883ZM64.5658 43.8687C63.9543 43.3369 63.9786 43.8689 64.4224 44.0146C64.4464 44.0218 64.5393 43.8885 64.5658 43.8687ZM58.1707 71.639C60.2694 73.707 62.7428 75.7321 64.9994 77.5725C65.2763 77.7987 65.1212 77.9709 65.1845 78.0553C65.3577 78.2863 65.651 78.1597 65.8016 78.2918C66.5385 78.9343 67.271 79.4738 68.0285 80.0555C68.8129 80.6517 68.0457 81.0217 68.2496 81.353C68.6553 81.9983 68.6411 80.893 68.9753 80.8467C69.6035 81.2873 70.2242 81.7541 70.8545 82.2051C70.648 82.1947 70.4423 82.1815 70.2366 82.1622C70.5214 82.3399 70.8827 82.6954 70.2668 82.6456C70.346 82.7646 70.4127 82.8898 70.4967 83.0094C70.6866 82.7238 71.2301 82.9748 71.3705 82.8171C71.5102 82.6601 71.1923 82.5502 71.2019 82.535C71.3341 82.324 72.4013 83.2411 72.4838 83.3047C72.6882 83.4846 72.3008 83.7716 72.5155 83.8421C72.887 83.9625 73.0047 83.0668 73.0109 84.3304C73.3522 84.0738 73.2896 84.2585 73.5207 84.3878C73.5517 84.4044 73.6123 84.1949 73.6281 84.1963C74.0554 84.2052 73.6185 84.4549 73.6109 84.4757C73.4987 84.8305 73.9604 84.8478 74.0299 84.9142C74.9168 85.758 75.6097 86.3375 76.7416 86.8182C76.9866 86.9227 77.8033 87.0167 78.0283 87.1454C78.2526 87.2747 78.0503 87.4933 78.1432 87.653C78.5217 87.0935 78.7246 87.0776 79.0804 87.6067C79.3666 87.1965 79.2517 87.5576 79.6033 87.5479C79.8978 87.541 80.493 87.1018 80.6946 87.6337C80.3561 87.5154 80.3444 87.7485 79.9205 87.7934C79.7774 87.8135 78.4253 87.4746 78.4006 87.958C78.3882 88.2139 78.9008 88.113 78.9063 88.1614C78.9435 88.447 78.6049 88.7002 78.4074 88.5272C78.4776 88.4906 78.5595 88.4553 78.6338 88.4194C78.2148 87.9601 78.2251 89.295 78.137 88.1054C78.1267 87.9594 78.1831 87.8259 78.1453 87.6634C78.1129 87.7173 78.1673 87.8882 78.0785 87.8916C77.9877 87.8937 77.9086 87.5749 77.8191 87.7983C77.687 88.1247 78.0717 88.0915 78.0923 88.1178C78.093 88.1157 78.0937 88.1137 78.0944 88.1116C78.2767 88.3557 77.7875 88.2402 77.7551 88.2644C77.5453 88.4304 77.6017 88.622 77.3251 88.7278C77.1668 88.788 76.851 88.6289 76.7196 88.622C76.5889 88.6165 76.7285 88.8336 76.6363 88.8419C76.5441 88.8502 76.4795 88.6981 76.3714 88.7071C76.3246 88.7112 76.271 88.8876 76.249 88.8869C76.0136 88.8855 76.271 88.566 76.0714 88.5252C75.9428 88.4996 75.4102 88.6967 75.6662 88.8952C75.5148 88.8834 75.3696 88.8627 75.2217 88.8419C75.2912 88.9242 75.3696 88.9906 75.435 89.0812C75.201 88.9083 74.9802 89.1649 74.8074 89.129C74.6347 89.0923 74.6162 88.6829 74.374 88.7908C73.8545 89.0176 74.8701 89.1974 74.9678 89.3026C75.0049 89.3454 74.729 89.5626 74.698 89.5605C74.5625 89.5516 74.4889 89.2998 74.3918 89.2749C74.0437 89.185 73.7416 89.3703 73.399 89.2984C72.234 89.0557 70.8324 88.6116 69.8017 88.178C69.4171 88.0168 69.3338 87.6226 69.1646 87.5479C68.7692 87.3701 68.5972 87.5894 68.2536 87.4255C67.741 87.1827 67.1604 86.5879 66.7811 86.3099C66.5178 86.1176 66.1317 86.1978 66.0553 86.1598C64.9917 85.6452 63.7916 84.8651 62.9885 84.318C62.6095 84.0607 62.6021 83.6907 62.5202 83.6443C62.1692 83.4424 62.111 83.7135 61.8589 83.5012C61.7228 83.3871 61.8383 83.1685 61.8247 83.1471C61.7035 82.9596 61.4836 83.1941 61.3459 83.1063C60.5549 82.6007 59.966 81.8841 59.2676 81.2838C59.217 81.2402 59.3098 81.1337 59.2716 81.1123C59.1056 81.0224 59.0336 81.2506 58.8724 81.1406C58.5366 80.9124 58.2395 80.6185 57.9304 80.3204C57.8998 80.2906 58.0018 80.1392 57.928 80.0762C57.8542 80.014 57.6871 80.0977 57.5774 79.9911C57.2906 79.7124 57.1295 79.2988 56.8231 79.0118C56.7723 78.9648 56.5632 79.0713 56.4868 79C56.2465 78.776 56.0209 78.3022 55.8205 78.1071C55.1577 77.4646 54.4573 76.9666 53.8376 76.3559C53.6924 76.2121 53.7069 75.9403 53.6356 75.8621C53.4744 75.6857 53.4665 75.9493 53.2952 75.7777C51.8974 74.3744 50.6209 72.8591 49.3065 71.3582C48.7921 70.771 48.0299 70.17 47.5918 69.5462C47.4107 69.2875 47.5798 69.0756 47.4424 68.9019C47.1973 68.5926 46.8887 68.75 46.603 68.4445C46.3757 68.2007 46.4054 67.69 46.1758 67.428C45.9467 67.1664 45.5892 67.2413 45.3157 66.9478C45.0908 66.706 44.9342 66.2503 44.703 65.9802C42.5692 63.4872 40.6416 60.8823 39.1246 57.9662C38.5806 56.9231 37.89 55.8728 37.5558 54.6635C37.5256 54.5515 37.8847 54.5369 37.6471 54.2624C37.5196 54.1155 37.1488 54.0224 36.9185 53.6492C35.5188 51.3759 34.7017 48.6135 33.4021 46.2707C31.4678 42.7951 27.6368 39.785 29.4342 35.2228C29.5426 35.0481 30.2929 34.7861 30.5537 34.8388C30.4475 35.0153 30.2788 35.1107 30.1502 35.285C31.126 35.0548 30.8805 35.1398 30.9565 35.5773C31.0154 35.8774 31.3207 35.4942 31.4938 35.6035C31.7074 35.7229 32.5041 36.3783 31.8333 36.4745C31.9625 36.4891 32.0856 36.501 32.2065 36.5014C32.5294 37.0242 32.9506 37.5972 33.3704 38.0916C33.4456 38.1823 33.6368 38.1042 33.7143 38.1999C33.9309 38.4721 33.892 38.7203 34.0383 38.9991C34.1175 39.1496 34.3443 39.0729 34.4232 39.2867C34.503 39.5022 34.2073 39.6302 34.6584 39.7785C34.949 39.4412 35.0332 40.3365 35.1925 40.6202C35.2145 40.6602 35.7034 40.8519 35.7541 41.0586C35.8108 41.2765 35.7182 41.6247 35.9699 41.8477C36.0872 41.9506 36.3796 41.9069 36.4617 42.0412C36.5193 42.1357 36.351 42.3658 36.4033 42.4986C36.4554 42.631 36.7768 42.8209 36.8052 42.8714C36.9044 43.0439 36.651 42.9272 36.7012 43.0505C36.9428 43.6382 37.2035 44.3763 37.6107 44.9171C37.6586 44.9798 37.7955 44.7893 37.8064 44.7953C38.2721 45.1489 37.9037 45.0219 37.8027 45.2348C37.7029 45.4381 38.2674 46.318 38.5933 46.1584C38.207 46.3979 38.622 46.445 38.6622 46.493C38.8174 46.6784 38.4538 46.8295 38.6626 46.9657C38.7394 47.0165 38.8998 46.7524 38.9335 46.833C39.0167 47.032 38.7324 47.4051 38.8324 47.6829C38.8564 47.7501 39.034 47.6801 39.0876 47.7939C39.1407 47.9072 39.1902 48.4873 39.4245 48.0793C39.2969 48.5173 39.4825 48.4906 39.6574 48.8291C39.7024 48.917 39.4917 49.1688 39.6701 49.2961C39.7305 49.3391 39.9869 49.1938 40.0377 49.2808C40.1548 49.4793 39.9949 49.8198 40.1296 50.0852C40.3783 50.5772 40.873 51.0136 41.086 51.5352C41.1457 51.6804 40.8702 51.7962 40.9796 51.996C40.9963 52.025 41.3552 52.1324 41.4146 52.2812C41.4496 52.3703 41.5468 52.8901 41.5862 52.9846C41.6513 53.1399 41.9123 53.0179 41.911 53.1253C41.908 53.4356 41.4385 53.4722 42.0957 53.4467C41.8742 53.6995 41.995 53.8381 41.6889 54.093C42.1121 53.959 41.8291 54.2926 42.0597 54.3936C42.2905 54.4948 43.0897 54.1992 42.351 54.7153C42.4944 54.7404 42.8696 54.9939 42.9182 55.0461C43.0595 55.2008 42.7905 55.2392 42.9013 55.354C42.9207 55.3743 43.0493 55.2594 43.1285 55.418C43.1817 55.526 43.6187 56.2393 43.6257 56.2924C43.7069 56.9164 43.3171 56.1221 43.0974 56.1175C43.1267 56.0733 43.1563 56.0291 43.1843 55.9839C43.1168 55.7257 42.8702 56.0556 42.8554 56.1998C42.8408 56.344 43.0989 56.4319 43.0436 56.5801C43.0156 56.6542 42.6118 56.8783 42.5819 56.7269C42.5445 56.9332 42.306 56.8365 42.2261 56.9598C42.1378 57.0947 42.4746 57.7066 42.6902 57.5717C42.6274 57.4572 42.5329 57.3257 42.4712 57.2094C42.7516 56.8278 44.2939 56.4456 44.047 57.1723C43.8708 57.7014 43.2688 57.4114 44.0237 57.9006C43.9691 57.7847 43.9451 57.6723 43.898 57.5659C44.1681 57.3741 43.9652 57.7299 44.1059 57.7527C44.174 57.7629 44.2147 57.3961 44.4144 57.5597C44.1355 57.9981 44.6225 57.8732 44.8238 58.1674C44.6991 58.132 44.5741 58.095 44.4493 58.0588C44.4967 58.7547 43.6282 57.6425 44.1164 58.7319C44.0275 58.6253 43.9511 58.5021 43.8536 58.3962C43.7471 58.5503 43.2613 58.7394 43.2058 58.8511C43.0606 59.1449 43.3359 59.2524 43.423 59.4283C43.4618 59.5056 43.3181 59.5381 43.3215 59.5446C43.374 59.6511 43.527 59.5168 43.595 59.5955C43.6801 59.6944 43.7279 60.1172 43.7809 60.1556C43.9166 60.2546 44.0982 59.8119 44.1316 59.8081C44.347 59.7828 44.33 60.0432 44.5322 59.8918C44.1089 59.5792 43.5156 58.2812 44.5679 59.1095C44.7106 58.5891 45.233 58.3608 45.549 58.7522C45.812 59.0764 45.4758 58.9804 45.3931 59.3003C45.3828 59.3409 45.6018 59.8728 45.7625 59.797C45.418 60.0076 45.229 60.3632 44.8169 60.4978C44.7564 60.5177 44.6444 60.3113 44.4152 60.5686C44.2999 60.6976 44.0657 61.0027 43.8792 61.1089C44.0288 61.0642 44.1949 61.0106 44.3502 60.9625C44.5854 61.228 44.4828 61.3607 44.3663 61.6793C44.4559 61.6054 44.7523 61.1794 44.786 61.4871C44.7866 61.5034 44.651 61.6145 44.6585 61.7766C44.6737 62.1014 44.6635 62.1806 44.1232 62.3031C44.6901 62.6019 44.2963 63.035 44.7763 63.419C45.2419 62.9366 44.9888 62.865 44.5754 62.4995C44.6896 62.3895 44.8097 62.2906 44.9249 62.1791C45.0472 62.9678 44.8741 62.6602 45.3671 62.8037C45.4875 62.8388 45.7297 63.3177 45.9851 62.9129C46.045 62.8176 45.8444 62.5588 45.9997 62.4928C46.0292 62.4804 46.3257 62.756 46.3121 62.8095C46.1481 63.4771 45.385 63.053 46.2617 63.9283C46.2862 63.9522 46.4473 63.8473 46.5078 63.8844C46.6214 63.9545 46.444 64.0885 46.5501 64.1457C46.6564 64.2029 46.9855 64.1446 46.8631 64.4427C46.6416 64.9875 45.985 64.5925 46.0083 64.1726C45.4004 64.4649 46.7597 66.3025 46.8987 66.3803C47.4723 66.7224 46.7281 65.9892 46.8417 65.8353C46.8893 65.7705 47.6714 65.1828 47.0111 65.3631C46.815 65.4161 46.8132 65.8236 46.6146 65.7336C46.4158 65.6433 46.6908 65.529 46.6983 65.5056C46.7241 65.4257 46.5162 65.3276 46.5328 65.2816C46.7828 64.5821 47.5505 64.0453 46.7726 65.3123C47.1622 65.309 47.2354 64.5788 47.5789 64.6813C47.9954 64.8045 47.7981 65.2805 47.8094 65.3285C47.9459 65.8967 48.0856 65.0106 48.3185 65.6529C48.4497 66.0111 47.6436 65.4904 48.1862 66.1199C48.643 66.6454 48.5887 66.2073 49.0241 65.9275C49.1258 65.8616 49.4727 66.064 49.1163 65.6959C49.0021 65.7678 48.8463 65.856 48.7289 65.9069C48.7275 65.746 49.127 65.165 49.1049 65.0981C48.994 64.7723 48.7284 64.9985 48.9362 64.5948C48.6644 64.9788 48.7427 64.6362 48.617 64.6279C48.1522 64.595 48.294 64.9972 48.2305 64.1694C48.1176 64.3694 48.003 64.5607 47.8899 64.7588C47.8334 64.6963 47.7768 64.6339 47.7205 64.5714C48.0135 64.1898 47.7013 63.8729 48.3137 63.9101C48.1305 63.4459 47.9356 63.3518 47.5838 63.4836C47.5167 63.5088 47.4516 63.4673 47.396 63.4031C47.3241 63.4767 47.0851 63.6808 47.0463 63.6931C46.7035 63.7984 47.0597 63.2964 47.2771 63.2155C47.25 63.1607 47.2319 63.1148 47.2263 63.0981C47.1911 62.9916 47.4765 63.0397 47.4811 62.929C47.4823 62.8927 47.2704 62.6774 47.3332 62.6241C47.7359 62.2835 47.7164 62.9037 47.3867 61.9283C46.9858 62.1907 47.3393 62.4993 46.8606 62.7047C46.3454 62.9246 46.7856 62.2831 46.2112 62.6314C46.288 62.5496 46.3568 62.4881 46.4477 62.3997C45.9781 62.2461 46.4277 61.9149 46.4573 61.7444C46.515 61.4125 45.8657 60.5512 46.0303 61.6244C45.9088 61.5362 45.8071 61.4305 45.6912 61.3395C46.4879 60.7332 46.2159 61.0415 45.9477 60.3877C45.8892 60.2437 46.2223 59.9523 45.7096 60.1288C46.1415 59.8527 45.6358 59.6627 45.6638 59.593C45.8477 59.1458 46.864 59.6341 46.1957 60.258C46.5798 60.1929 46.1983 60.461 46.3553 60.5781C46.5805 60.7445 46.6751 60.7214 46.5774 61.1798C47.1496 61.1518 46.054 60.0625 47.108 60.4458C48.1373 60.8542 51.6408 64.912 52.5271 65.7736C54.0924 67.3919 54.9539 68.1958 56.2914 69.6789C56.4216 69.8276 57.4861 70.8685 56.8716 71.0373C56.784 71.0636 56.1807 70.744 56.252 71.4523C56.3595 71.1902 56.7069 71.3063 56.7453 71.3063C57.6248 71.3167 57.4766 70.9529 58.1707 71.639ZM56.9003 77.3394C55.9857 76.3207 56.4675 77.2758 55.6854 77.706C55.8137 77.8291 55.9419 77.9508 56.0711 78.0726C56.0725 78.0013 56.0743 77.9315 56.0759 77.8602C56.0757 77.8602 56.076 77.8602 56.0759 77.8602C56.3514 77.6873 56.6263 77.5137 56.9003 77.3394ZM75.724 89.4845C75.6373 89.5737 75.5506 89.6629 75.4597 89.748C75.2939 89.6553 75.1295 89.5633 74.9657 89.4692C75.0111 89.4049 75.0558 89.3399 75.1013 89.2756C75.307 89.3503 75.5127 89.4229 75.724 89.4845ZM45.7978 64.0926C45.8971 63.7042 45.4657 64.0504 45.4709 63.6292C45.1662 63.9033 44.8716 64.1764 44.5721 64.4508C44.7731 64.6245 44.9323 64.5796 45.0189 64.866C45.1047 64.7615 45.1907 64.6559 45.2777 64.5517C45.2274 64.5307 45.1724 64.5096 45.1256 64.4879C45.3781 64.2123 45.686 64.5397 45.799 64.0928C45.7985 64.0928 45.7981 64.0927 45.7978 64.0926ZM44.1633 62.0886C44.1276 61.9454 43.9833 61.3863 43.8033 61.4221C43.1895 61.5418 44.3612 62.5957 43.2999 61.9571C43.237 62.0072 43.1695 62.048 43.1043 62.0935C43.1985 62.2797 43.2968 62.4639 43.3978 62.6479C43.6504 62.4563 43.9101 62.2822 44.1633 62.0886ZM53.355 73.9235C53.2401 73.7423 52.3563 73.1966 52.3177 73.6849C52.3072 73.8294 52.9919 73.7976 53.0934 73.9359C53.1594 74.0258 52.869 74.1344 53.0956 74.2195C53.179 74.1254 53.2746 74.0238 53.354 73.9235C53.3543 73.9235 53.3547 73.9235 53.355 73.9235ZM54.8119 73.0486C54.6279 72.9317 54.4312 72.8196 54.244 72.7014C54.119 73.0403 54.4836 73.1191 54.1698 73.4504C54.1039 73.4317 54.0385 73.4137 53.9725 73.3951C54.0126 73.2927 54.0533 73.191 54.0941 73.0894C53.7877 73.1274 53.7763 73.2941 53.5891 72.9932C53.2354 73.6219 52.9988 73.9124 53.9131 73.855C53.567 74.0348 52.7699 74.9651 53.6244 74.5937C53.7829 74.5245 53.6788 74.2631 53.6953 74.243C53.8961 73.9899 54.1416 73.9498 54.3276 73.707C54.4119 73.5977 54.3016 73.4871 54.4212 73.3377C54.48 73.265 54.7716 73.1862 54.8119 73.0486ZM53.9543 74.4948C53.7693 74.5826 53.604 75.0716 53.8118 75.149C54.1344 75.2687 54.0966 74.6089 53.9543 74.4948ZM75.7253 89.4845C75.7246 89.4845 75.724 89.4845 75.724 89.4845L75.7246 89.4838L75.7253 89.4845ZM44.3802 62.7877C44.1539 62.7531 44.0379 62.5461 43.8343 62.7118C43.8317 62.6185 43.828 62.525 43.8257 62.4319C43.7618 62.4779 43.6982 62.5246 43.635 62.5702C43.7286 62.7898 43.8228 63.0092 43.918 63.2299C44.0722 63.0833 44.2286 62.9382 44.3802 62.7877ZM43.0796 60.5805C42.9378 60.3224 42.7804 60.7266 42.6022 60.7699C42.4237 60.8129 42.3938 60.5169 42.2065 60.6806C42.2948 60.83 42.3878 60.9857 42.4791 61.1367C42.6749 60.9468 42.8832 60.7665 43.0796 60.5805C43.0798 60.5806 43.0795 60.5803 43.0796 60.5805ZM60.9904 81.1496C60.8764 80.9636 61.1082 80.7997 60.5976 80.8052C60.5979 80.8052 60.5981 80.8059 60.5983 80.8059C60.7612 81.2174 61.0348 81.678 61.502 81.759C61.4672 81.3737 61.1711 81.4408 60.9904 81.1496ZM45.5704 65.1358C45.7925 65.0735 45.7043 64.6527 45.4915 64.7011C45.1477 64.7808 45.2321 65.2296 45.5704 65.1358ZM68.7691 84.0157C69.3476 83.5759 69.221 82.656 68.5629 82.6463C68.5049 82.6449 68.7258 83.017 68.5652 83.0737C68.549 83.0793 68.3775 82.9617 68.2869 83.0163C68.1962 83.0703 68.1356 83.284 68.0171 83.3193C67.8087 83.3808 67.6669 82.9569 67.4659 83.0772C67.4389 83.0931 67.4725 83.4486 67.4786 83.4652C67.5768 83.7259 67.9459 83.506 67.9755 83.5205C68.1298 83.5952 67.9611 83.838 67.9645 83.9196C67.9712 84.0745 68.1614 84.033 68.1654 84.0462C68.2662 84.4017 67.7817 84.04 67.6588 84.0897C67.3258 84.2274 67.3683 84.5628 66.8288 84.4314C66.7781 84.419 66.2653 84.0911 66.7544 84.7689C65.1048 84.5801 67.2107 85.5014 67.5042 85.4813C67.6375 85.4765 67.6256 85.1466 67.7473 85.0705C68.0248 84.8955 68.2798 84.9792 68.456 84.6105C68.826 83.8359 68.2567 84.1603 68.1225 83.9168C68.2358 83.7674 68.3336 83.6139 68.4626 83.4783C68.2803 83.6568 68.7254 84.0496 68.7682 84.0171C68.7685 84.0164 68.7688 84.0164 68.7691 84.0157ZM65.0792 82.9216C64.9426 82.5218 64.6647 82.9866 64.5814 82.5578C64.0873 82.8109 64.5491 83.0827 64.5866 83.1394C64.7568 83.3995 64.4643 83.8387 64.7993 83.8636C64.8835 83.5454 64.9866 83.2356 65.0792 82.9216ZM67.4381 84.6424C67.1069 84.7668 67.4578 84.9647 67.4465 85.0186C67.3257 85.592 66.33 84.8858 67.4381 84.6424ZM53.2501 72.2297C53.1871 72.1349 53.0447 72.3659 52.9207 72.3459C52.7957 72.3265 52.7296 71.9233 52.616 72.0409C52.5011 72.1577 52.6169 72.9082 52.1227 72.507C52.0699 72.5845 52.0149 72.626 51.9611 72.6896C52.077 72.8196 52.1932 72.951 52.31 73.0804C52.4372 72.83 52.5737 72.5686 52.6985 72.3279C52.9176 72.256 52.7578 72.4794 52.7614 72.4835C52.7616 72.4828 52.7618 72.4828 52.762 72.4828C52.9004 72.6011 53.3921 72.442 53.2501 72.2297ZM59.1103 78.9765C59.5568 78.4945 58.8826 78.8845 58.7455 78.8742C58.6091 78.8638 58.6511 78.5802 58.5116 78.8327C58.5216 79.0983 59.0609 79.0305 59.1108 78.9758C59.1106 78.9758 59.1104 78.9758 59.1103 78.9765ZM63.5797 81.9021C63.2601 81.8717 63.1969 82.0363 63.0312 81.678C62.9499 81.815 62.8668 81.9547 62.787 82.0896C63.0085 82.2521 63.2573 81.8641 63.4094 82.1981C63.4345 82.2535 63.133 82.4914 63.3932 82.5294C63.4488 82.3289 63.5166 82.1096 63.5797 81.9021ZM62.1096 81.5653C62.3859 81.7396 63.3423 80.8495 62.5282 80.9684C62.4073 80.9864 61.9029 81.4353 62.1096 81.5653ZM55.3107 74.3191C54.9547 73.9096 55.2424 74.492 55.2054 74.732C54.1999 73.9491 55.3416 74.7942 54.9766 75.3524C55.2183 75.3282 55.722 75.2237 55.5722 74.9167C55.5099 74.7887 55.4085 74.963 55.4032 74.9568C55.2611 74.7486 55.5058 74.5418 55.3107 74.3191ZM65.5823 83.2107C65.5598 83.2072 65.4682 83.412 65.389 83.414C65.3098 83.4154 65.2683 83.2038 65.1825 83.3103C65.0958 83.4175 65.2913 83.6699 65.4224 83.6353C65.5538 83.5994 65.7845 83.2383 65.5823 83.2107ZM64.1511 81.5957C63.8378 81.5715 63.7386 82.4983 63.7917 82.5294C64.2474 82.7916 63.9889 81.7991 64.1511 81.5957ZM57.1651 74.1981C56.4183 74.0507 56.2517 74.8945 56.2518 75.4921C56.3513 75.4665 56.4517 75.4409 56.5499 75.4146C56.0069 75.6318 55.3291 75.7134 56.346 76.0419C56.0506 75.5882 56.4681 75.7874 56.4909 75.7681C57.2021 75.0951 56.3336 74.8924 57.1651 74.1981C57.1652 74.1981 57.165 74.1981 57.1651 74.1981ZM66.2115 83.8829C66.4584 84.033 67.1852 84.271 67.1048 83.7246C66.8083 83.7799 66.5109 83.8331 66.2115 83.8829ZM50.069 66.4624C50.1154 66.1309 49.9817 65.9701 49.7952 65.7604C49.6751 66.1799 49.5404 66.0756 49.4194 66.0626C49.2368 66.0426 49.4402 66.2823 49.4223 66.298C49.1561 66.5044 48.9893 66.3794 49.2816 66.7333C49.1194 66.7183 48.9574 66.7047 48.7957 66.6884C49.0019 66.9727 48.8826 67.175 48.8143 67.5191C49.1879 66.9361 49.0478 67.4185 49.4636 67.4132C49.671 67.4097 50.0442 66.6309 50.0685 66.4618C50.0687 66.462 50.0689 66.4622 50.069 66.4624ZM56.783 73.6413C56.6536 73.68 56.4988 73.7519 56.3588 73.8038C56.3002 73.7644 56.2426 73.7229 56.1841 73.6828C56.2513 73.6026 56.323 73.5196 56.3864 73.4407C56.3429 73.3543 56.2659 73.4829 56.237 73.4739C56.2374 73.4732 56.2378 73.4725 56.2382 73.4725C55.826 73.3335 55.7272 73.2028 55.7426 72.7567C55.515 72.9822 55.2874 73.2083 55.0599 73.4338C55.1302 73.4615 55.2006 73.4905 55.2704 73.5189C55.4184 73.4241 55.5662 73.3287 55.7138 73.2332C55.7028 73.357 55.692 73.4801 55.6816 73.6039C55.7705 73.6053 55.8709 73.6136 55.9525 73.6102C55.5494 74.474 55.4622 73.5258 55.1956 73.7838C55.0226 73.9498 55.5526 74.4657 55.7441 74.4221C55.7718 74.4152 56.1254 73.8273 56.0735 74.2644C56.0647 74.3322 55.0703 75.3787 56.0921 74.7437C56.2367 74.6531 56.7563 73.9076 56.783 73.6413ZM55.2736 71.4405C54.8869 72.3763 54.5606 70.6064 54.455 71.6024C54.02 71.7587 54.0467 71.7787 53.9031 72.1757C53.8901 72.2117 53.7159 72.1958 53.7128 72.2145C53.6834 72.487 53.9104 72.5665 53.6387 72.8286C53.6863 72.8494 53.7305 72.8701 53.7783 72.8909C53.897 72.4994 54.2888 72.5658 54.589 72.4455C54.7252 72.3908 54.6671 72.2698 54.7851 72.2207C54.8282 72.2034 54.889 72.3922 54.9835 72.3106C55.1961 72.1252 55.3921 71.7801 55.4126 71.5007C55.4128 71.5007 55.413 71.5 55.4132 71.5C55.3675 71.4793 55.3199 71.4613 55.2736 71.4405ZM61.1002 77.937C60.8316 78.3769 60.959 78.6708 60.3824 78.5201C60.3395 78.6148 60.2978 78.7096 60.2551 78.805C60.3317 78.8562 60.4061 78.906 60.4835 78.9585C61.642 77.964 60.9759 79.6045 61.3879 78.5678C61.4325 78.4543 61.185 78.4211 61.546 78.3084C61.5459 78.3077 61.5459 78.307 61.5459 78.307C61.2563 78.1978 61.113 78.3139 61.1002 77.937ZM59.3599 76.9293C58.1367 77.2876 59.6903 78.0096 59.6665 77.6099C59.6643 77.5753 58.9793 77.2876 59.3599 76.9293ZM64.1928 79.5976C63.9605 79.4053 63.6031 79.8611 63.5051 80.0485C63.4068 80.2367 63.7021 80.1903 63.7048 80.2325C63.7134 80.3736 63.5183 80.3204 63.525 80.5092C63.5271 80.5714 63.8433 81.0535 63.8784 81.0473C64.0694 81.0127 64.1821 80.5057 64.2457 80.4836C64.4514 80.4103 64.4488 80.7125 64.624 80.5251C64.998 80.1246 64.4131 80.4096 64.3635 80.3854C64.2165 80.3121 64.4043 80.0707 64.3418 79.951C64.2793 79.8307 64.1547 79.8694 64.0811 79.7892C64.0566 79.7629 64.204 79.608 64.1928 79.5976ZM62.6594 79.9856C63.1763 79.8258 62.8432 78.9765 62.7104 79.0021C62.3096 79.0789 62.4086 80.0596 62.6594 79.9856ZM54.9851 73.1502C55.416 73.1364 55.124 72.4683 54.8974 72.4164C54.8272 72.534 54.836 73.1544 54.9851 73.1502ZM57.2919 74.3225C57.0302 74.2077 56.7927 74.9741 56.965 75.1221C57.3835 74.8703 57.2294 74.853 57.1365 74.7375C57.044 74.622 57.4959 74.4111 57.2919 74.3225ZM66.6115 81.8807C66.5677 81.8461 65.5752 81.6642 65.9372 82.0937C65.9648 82.1269 66.5539 82.4222 66.6344 82.3863C66.7961 82.315 66.7249 81.9782 66.6115 81.8807ZM58.6957 74.6912C58.3176 74.8959 58.2188 74.7963 57.9902 75.2369C57.99 75.2369 57.9903 75.2369 57.9902 75.2369C57.6273 75.0986 58.2832 74.3716 58.2132 74.335C57.9681 74.2043 57.6776 74.8876 57.398 74.9374C57.8326 75.0529 57.4298 75.3178 57.6309 75.5467C57.6762 75.5979 58.0648 75.5758 58.2114 75.4734C58.358 75.3704 58.6102 74.8911 58.6957 74.6912ZM67.7775 82.4838C67.5915 82.1891 67.0025 82.6027 67.3228 82.9202C67.4801 83.0758 67.8926 82.6636 67.7775 82.4838ZM45.7981 60.3746C45.6839 60.5135 45.5714 60.6534 45.4611 60.7947C45.3597 60.7219 45.2577 60.6492 45.1559 60.5766C45.2535 60.622 45.3507 60.6679 45.4482 60.7142C45.3717 60.4976 45.5733 60.236 45.7981 60.3746C45.7981 60.3748 45.7979 60.3745 45.7981 60.3746ZM41.699 53.7656C41.7933 53.5995 41.2496 53.6941 41.2284 53.7369C41.0699 54.0556 41.5704 53.9995 41.699 53.7656ZM55.8049 71.7448C55.6077 71.4357 55.1762 72.1972 55.2904 72.3977C55.311 72.1882 55.9174 71.9205 55.8049 71.7448ZM43.0974 56.1175C43.0539 56.1834 43.0105 56.2497 42.969 56.3191C42.9927 56.169 43.0392 56.1163 43.0974 56.1175ZM66.8846 81.1752C66.8731 81.0922 66.566 80.8294 66.4774 80.8661C66.2915 80.9442 66.3031 81.5065 66.5369 81.4878C66.5627 81.4858 66.8957 81.2589 66.8839 81.1752C66.8841 81.1752 66.8843 81.1752 66.8846 81.1752ZM45.7817 59.7848C45.7754 59.7899 45.769 59.794 45.7625 59.797C45.7689 59.7931 45.7751 59.7886 45.7817 59.7848ZM38.6257 46.1378C38.6153 46.1458 38.6044 46.1529 38.5933 46.1584C38.6037 46.152 38.6142 46.1445 38.6257 46.1378ZM64.954 79.0007C65.3113 78.2724 64.8197 78.4412 64.7827 78.9025C64.7815 78.9274 64.9288 78.9807 64.954 79.0007Z" fill="#00B20F"/>
<path d="M202.981 134.868H22.0179C20.4979 134.868 19.2656 136.107 19.2656 137.634C19.2656 139.162 20.4979 140.401 22.0179 140.401H202.981C204.501 140.401 205.734 139.162 205.734 137.634C205.734 136.107 204.501 134.868 202.981 134.868Z" fill="white" stroke="black" stroke-width="4"/>
</g>
<defs>
<clipPath id="clip0_185_250">
<rect width="225" height="157" fill="white"/>
</clipPath>
</defs>
</svg>
